<?xml version="1.0" encoding="UTF-8"?>
<svg version="1.1" xmlns="http://www.w3.org/2000/svg" width="434" height="434">
<path d="M0 0 C1.67848242 1.50528545 3.34701965 3.02175728 5.00390625 4.55078125 C7.02647129 6.40538241 9.09655859 8.17144536 11.19921875 9.93359375 C25.48250035 22.47082289 36.93165226 38.30450345 46.22802734 54.78857422 C46.90849549 55.9949025 47.59615831 57.19720514 48.29150391 58.39501953 C74.87642702 104.25432975 79.91447874 161.69349374 66.69921875 212.5 C58.20079827 243.52513643 43.17407933 271.69472044 21.33203125 295.36328125 C19.47743009 297.38584629 17.71136714 299.45593359 15.94921875 301.55859375 C3.41198961 315.84187535 -12.42169095 327.29102726 -28.90576172 336.58740234 C-30.11209 337.26787049 -31.31439264 337.95553331 -32.51220703 338.65087891 C-78.37151725 365.23580202 -135.81068124 370.27385374 -186.6171875 357.05859375 C-217.64232393 348.56017327 -245.81190794 333.53345433 -269.48046875 311.69140625 C-271.50303379 309.83680509 -273.57312109 308.07074214 -275.67578125 306.30859375 C-289.95906285 293.77136461 -301.40821476 277.93768405 -310.70458984 261.45361328 C-311.38505799 260.247285 -312.07272081 259.04498236 -312.76806641 257.84716797 C-339.35298952 211.98785775 -344.39104124 154.54869376 -331.17578125 103.7421875 C-322.67736077 72.71705107 -307.65064183 44.54746706 -285.80859375 20.87890625 C-283.95399259 18.85634121 -282.18792964 16.78625391 -280.42578125 14.68359375 C-267.88855211 0.40031215 -252.05487155 -11.04883976 -235.57080078 -20.34521484 C-234.3644725 -21.02568299 -233.16216986 -21.71334581 -231.96435547 -22.40869141 C-160.42719839 -63.87921967 -62.21827879 -54.05268443 0 0 Z M-166.73828125 -25.37890625 C-167.50930176 -25.2396875 -168.28032227 -25.10046875 -169.07470703 -24.95703125 C-181.14150751 -22.73643155 -192.36458786 -18.92939821 -203.73828125 -14.37890625 C-204.40408203 -14.11819336 -205.06988281 -13.85748047 -205.75585938 -13.58886719 C-213.07928594 -10.7083194 -219.68991707 -7.39969584 -226.23046875 -3.0234375 C-228.49825374 -1.53630747 -230.77361972 -0.2566464 -233.17578125 0.99609375 C-241.68932131 5.64955203 -249.21803523 11.75193822 -255.90234375 18.75 C-257.6449889 20.52601495 -259.44919582 22.09659887 -261.36328125 23.68359375 C-276.48087511 36.81515077 -288.63960153 52.82940793 -297.73828125 70.62109375 C-298.58953779 72.08112769 -299.44365192 73.53949974 -300.30078125 74.99609375 C-303.41991724 80.62841893 -305.56963691 86.57205613 -307.73828125 92.62109375 C-307.97691895 93.25595703 -308.21555664 93.89082031 -308.46142578 94.54492188 C-320.31550906 126.14551392 -322.94200034 160.52366222 -316.73828125 193.62109375 C-316.58842773 194.45108887 -316.43857422 195.28108398 -316.28417969 196.13623047 C-313.94924616 208.88913174 -310.85308701 221.19446274 -304.69140625 232.7109375 C-303.59786909 234.90249352 -302.77419819 237.13639704 -301.92578125 239.43359375 C-300.00470387 244.36486325 -297.36881037 248.57138911 -294.453125 252.97265625 C-292.95163476 255.29158651 -291.63959235 257.61196279 -290.36328125 260.05859375 C-285.97823994 268.11719617 -280.21685348 275.17507716 -273.73828125 281.62109375 C-273.14015625 282.56984375 -272.54203125 283.51859375 -271.92578125 284.49609375 C-269.51347229 287.9422494 -266.85134071 290.32708057 -263.640625 293.0078125 C-261.91272032 294.47316082 -260.31458366 295.99568534 -258.73828125 297.62109375 C-255.10593424 296.14895311 -253.43251302 294.2397203 -251.11328125 291.12109375 C-228.01257902 261.60118359 -190.33006231 241.90024099 -153.55078125 236.43359375 C-122.28360015 232.78794553 -89.2721294 235.33370063 -60.73828125 249.62109375 C-59.66449219 250.12253906 -58.59070313 250.62398438 -57.484375 251.140625 C-48.31225261 255.51659848 -40.00463774 260.73552663 -31.73828125 266.62109375 C-30.90167969 267.21019531 -30.06507813 267.79929687 -29.203125 268.40625 C-20.50462658 274.95623423 -13.06851019 283.11667332 -5.45898438 290.86865234 C-4.22488253 292.12551714 -2.98381657 293.37555843 -1.73828125 294.62109375 C-0.04165304 292.97919548 1.61578751 291.31349835 3.26171875 289.62109375 C3.88175781 288.98558594 4.50179688 288.35007812 5.140625 287.6953125 C22.25678906 270.08899105 22.25678906 270.08899105 31.26171875 248.62109375 C31.92171875 248.62109375 32.58171875 248.62109375 33.26171875 248.62109375 C38.11217884 239.53938124 41.83289812 230.30780261 45.26171875 220.62109375 C45.6162915 219.63906982 45.6162915 219.63906982 45.97802734 218.63720703 C48.95717094 210.35904393 51.07140363 202.34015201 52.26171875 193.62109375 C52.51857863 192.13219452 52.77931583 190.64396135 53.04296875 189.15625 C56.57112835 168.41507158 56.39018158 147.6279116 52.671875 126.93017578 C52.28395117 124.74625699 51.93878924 122.56000423 51.60546875 120.3671875 C50.00396938 110.31811233 46.94460912 101.07709928 43.26171875 91.62109375 C42.82472656 90.491875 42.38773437 89.36265625 41.9375 88.19921875 C39.46452944 82.05189761 36.58686517 76.3421676 33.26171875 70.62109375 C32.69839844 69.5846875 32.13507813 68.54828125 31.5546875 67.48046875 C21.5359168 49.27936191 8.06835365 31.66640167 -8.23828125 18.62109375 C-10.73828125 16.62109375 -10.73828125 16.62109375 -12.88671875 14.3671875 C-16.31017264 11.07035451 -19.97323242 8.39945932 -23.86328125 5.68359375 C-24.61738281 5.15435303 -25.37148438 4.6251123 -26.1484375 4.07983398 C-31.81133811 0.15512926 -37.60399898 -3.24205736 -43.73828125 -6.37890625 C-45.24014331 -7.25070632 -46.74019803 -8.12562859 -48.23828125 -9.00390625 C-52.33960021 -11.29216442 -56.54784804 -12.87911177 -60.98046875 -14.41015625 C-64.36274947 -15.59826619 -67.65807584 -16.95994086 -70.9609375 -18.3515625 C-79.39633238 -21.47182812 -87.97382482 -23.3517203 -96.80078125 -25.00390625 C-97.92033203 -25.22046875 -99.03988281 -25.43703125 -100.19335938 -25.66015625 C-122.30149074 -29.86134954 -144.63725514 -29.56030324 -166.73828125 -25.37890625 Z " fill="#FCFCFC" transform="translate(348.73828125,58.37890625)"/>
<path d="M0 0 C1.47196162 1.42354183 2.93269085 2.8589228 4.375 4.3125 C5.24125 5.116875 6.1075 5.92125 7 6.75 C21.99876034 22.93287299 31.42465498 43.22697624 30.60546875 65.56640625 C30.49138672 67.42072266 30.49138672 67.42072266 30.375 69.3125 C30.32988281 70.45589844 30.28476562 71.59929687 30.23828125 72.77734375 C29.2074633 92.0421859 21.40811292 109.92620391 7.375 123.3125 C6.55 124.17875 5.725 125.045 4.875 125.9375 C4.05 126.72125 3.225 127.505 2.375 128.3125 C1.77816406 128.91578125 1.18132812 129.5190625 0.56640625 130.140625 C-14.82874253 144.94256621 -35.85711945 149.85369491 -56.58325195 149.73144531 C-71.50765078 149.37128588 -83.71894889 145.70987076 -96.625 138.3125 C-97.57890625 137.78914062 -98.5328125 137.26578125 -99.515625 136.7265625 C-112.10184731 129.35463229 -120.72599469 119.00800615 -127.625 106.3125 C-128.04394531 105.5596875 -128.46289062 104.806875 -128.89453125 104.03125 C-131.39804795 99.30551061 -133.09356049 94.42553191 -134.625 89.3125 C-135.04652344 88.12720703 -135.04652344 88.12720703 -135.4765625 86.91796875 C-141.76350433 66.85263573 -137.94291223 45.01645003 -128.61914062 26.71289062 C-117.55031323 5.81477052 -100.16337521 -8.66978515 -77.625 -15.6875 C-75.954375 -16.2753125 -75.954375 -16.2753125 -74.25 -16.875 C-48.81194413 -22.57663321 -19.78707215 -17.59176089 0 0 Z " fill="#FFFFFF" transform="translate(271.625,123.6875)"/>
</svg>
